Coordinates
nRows=452
nColumns=2
inDegrees=yes
endheader
time	ankle_angle_r	
5.92137	  9.472561	
5.95464	  9.470722	
5.9879	  9.480755	
6.02117	  9.494156	
6.05444	  9.501365	
6.0877	  9.506134	
6.12097	  9.512246	
6.15423	  9.518806	
6.1875	  9.526143	
6.22077	  9.534011	
6.25403	  9.539881	
6.2873	  9.541497	
6.32056	  9.540530	
6.35383	  9.543290	
6.3871	  9.551133	
6.42036	  9.555813	
6.45363	  9.553181	
6.4869	  9.549508	
6.52016	  9.550601	
6.55343	  9.555584	
6.58669	  9.558414	
6.61996	  9.554586	
6.65323	  9.548269	
6.68649	  9.543749	
6.71976	  9.538967	
6.75302	  9.536705	
6.78629	  9.541026	
6.81956	  9.544944	
6.85282	  9.542195	
6.88609	  9.536644	
6.91935	  9.531787	
6.95262	  9.526333	
6.98589	  9.518318	
7.01915	  9.509176	
7.05242	  9.506254	
7.08569	  9.510266	
7.11895	  9.507209	
7.15222	  9.492825	
7.18548	  9.482343	
7.21875	  9.482024	
7.25202	  9.479962	
7.28528	  9.468180	
7.31855	  9.455033	
7.35181	  9.451541	
7.38508	  9.453918	
7.41835	  9.453522	
7.45161	  9.455982	
7.48488	  9.469274	
7.51815	  9.483454	
7.55141	  9.483232	
7.58468	  9.471336	
7.61794	  9.465119	
7.65121	  9.472692	
7.68448	  9.483894	
7.71774	  9.488946	
7.75101	  9.489362	
7.78427	  9.485373	
7.81754	  9.472747	
7.85081	  9.452690	
7.88407	  9.431916	
7.91734	  9.417869	
7.9506	  9.414394	
7.98387	  9.418559	
8.01714	  9.426336	
8.0504	  9.433927	
8.08367	  9.433079	
8.11694	  9.421867	
8.1502	  9.413491	
8.18347	  9.419660	
8.21673	  9.436223	
8.25	  9.450207	
8.28327	  9.452355	
8.31653	  9.443988	
8.3498	  9.434308	
8.38306	  9.431109	
8.41633	  9.436270	
8.4496	  9.446883	
8.48286	  9.455624	
8.51613	  9.455847	
8.5494	  9.450196	
8.58266	  9.447380	
8.61593	  9.450916	
8.64919	  9.454665	
8.68246	  9.449046	
8.71573	  9.434271	
8.74899	  9.421452	
8.78226	  9.415786	
8.81552	  9.413512	
8.84879	  9.413404	
8.88206	  9.414322	
8.91532	  9.414847	
8.94859	  9.418977	
8.98185	  9.426431	
9.01512	  9.431415	
9.04839	  9.434521	
9.08165	  9.437126	
9.11492	  9.435118	
9.14819	  9.427420	
9.18145	  9.417431	
9.21472	  9.411168	
9.24798	  9.416650	
9.28125	  9.434313	
9.31452	  9.455659	
9.34778	  9.473587	
9.38105	  9.484855	
9.41431	  9.486612	
9.44758	  9.476146	
9.48085	  9.457381	
9.51411	  9.443057	
9.54738	  9.440845	
9.58065	  9.448724	
9.61391	  9.466134	
9.64718	  9.490716	
9.68044	  9.512029	
9.71371	  9.522599	
9.74698	  9.524876	
9.78024	  9.525790	
9.81351	  9.529600	
9.84677	  9.532460	
9.88004	  9.529489	
9.91331	  9.526897	
9.94657	  9.532822	
9.97984	  9.543392	
10.0131	  9.551061	
10.0464	  9.553675	
10.0796	  9.551220	
10.1129	  9.546247	
10.1462	  9.542887	
10.1794	  9.541865	
10.2127	  9.542889	
10.246	  9.544988	
10.2792	  9.544508	
10.3125	  9.541922	
10.3458	  9.541034	
10.379	  9.539882	
10.4123	  9.536225	
10.4456	  9.533597	
10.4788	  9.534467	
10.5121	  9.538423	
10.5454	  9.542139	
10.5786	  9.538795	
10.6119	  9.526984	
10.6452	  9.511017	
10.6784	  9.493418	
10.7117	  9.480391	
10.745	  9.481683	
10.7782	  9.494632	
10.8115	  9.502988	
10.8448	  9.495462	
10.878	  9.475092	
10.9113	  9.453144	
10.9446	  9.439566	
10.9778	  9.437918	
11.0111	  9.444631	
11.0444	  9.448455	
11.0776	  9.439824	
11.1109	  9.419884	
11.1442	  9.394209	
11.1774	  9.371607	
11.2107	  9.362038	
11.244	  9.366471	
11.2772	  9.381073	
11.3105	  9.400531	
11.3437	  9.415177	
11.377	  9.421394	
11.4103	  9.424006	
11.4435	  9.424226	
11.4768	  9.420219	
11.5101	  9.414673	
11.5433	  9.413279	
11.5766	  9.418954	
11.6099	  9.428472	
11.6431	  9.436800	
11.6764	  9.444180	
11.7097	  9.452401	
11.7429	  9.456202	
11.7762	  9.449492	
11.8095	  9.437499	
11.8427	  9.431392	
11.876	  9.438009	
11.9093	  9.454843	
11.9425	  9.468136	
11.9758	  9.469588	
12.0091	  9.468084	
12.0423	  9.471045	
12.0756	  9.475433	
12.1089	  9.481113	
12.1421	  9.490167	
12.1754	  9.497935	
12.2087	  9.499265	
12.2419	  9.495383	
12.2752	  9.490679	
12.3085	  9.487785	
12.3417	  9.486883	
12.375	  9.490195	
12.4083	  9.500205	
12.4415	  9.512442	
12.4748	  9.519554	
12.5081	  9.519576	
12.5413	  9.515702	
12.5746	  9.512207	
12.6079	  9.510703	
12.6411	  9.511833	
12.6744	  9.518426	
12.7077	  9.528748	
12.7409	  9.535203	
12.7742	  9.536051	
12.8075	  9.534033	
12.8407	  9.526730	
12.874	  9.512751	
12.9073	  9.497570	
12.9405	  9.486536	
12.9738	  9.479969	
13.0071	  9.473895	
13.0403	  9.466815	
13.0736	  9.465445	
13.1069	  9.471026	
13.1401	  9.470869	
13.1734	  9.462851	
13.2067	  9.464436	
13.2399	  9.480728	
13.2732	  9.494637	
13.3065	  9.494717	
13.3397	  9.487074	
13.373	  9.485308	
13.4062	  9.496722	
13.4395	  9.512914	
13.4728	  9.522223	
13.506	  9.523742	
13.5393	  9.518898	
13.5726	  9.509454	
13.6058	  9.505399	
13.6391	  9.514177	
13.6724	  9.529036	
13.7056	  9.537855	
13.7389	  9.534562	
13.7722	  9.522361	
13.8054	  9.510567	
13.8387	  9.507845	
13.872	  9.516303	
13.9052	  9.527882	
13.9385	  9.531634	
13.9718	  9.526742	
14.005	  9.520190	
14.0383	  9.516297	
14.0716	  9.514340	
14.1048	  9.510948	
14.1381	  9.505298	
14.1714	  9.500413	
14.2046	  9.496826	
14.2379	  9.493740	
14.2712	  9.494028	
14.3044	  9.497687	
14.3377	  9.497544	
14.371	  9.488854	
14.4042	  9.477194	
14.4375	  9.471838	
14.4708	  9.472856	
14.504	  9.471096	
14.5373	  9.463757	
14.5706	  9.459236	
14.6038	  9.460158	
14.6371	  9.457922	
14.6704	  9.447974	
14.7036	  9.434841	
14.7369	  9.425409	
14.7702	  9.422120	
14.8034	  9.421549	
14.8367	  9.423336	
14.87	  9.429330	
14.9032	  9.434047	
14.9365	  9.433962	
14.9698	  9.435663	
15.003	  9.440851	
15.0363	  9.441772	
15.0696	  9.436116	
15.1028	  9.427892	
15.1361	  9.419756	
15.1694	  9.413165	
15.2026	  9.406755	
15.2359	  9.400598	
15.2692	  9.399375	
15.3024	  9.401008	
15.3357	  9.402876	
15.369	  9.414294	
15.4022	  9.437076	
15.4355	  9.455535	
15.4687	  9.458839	
15.502	  9.453246	
15.5353	  9.453482	
15.5685	  9.467489	
15.6018	  9.487127	
15.6351	  9.500764	
15.6683	  9.508609	
15.7016	  9.515285	
15.7349	  9.519886	
15.7681	  9.519922	
15.8014	  9.517546	
15.8347	  9.518101	
15.8679	  9.521734	
15.9012	  9.524776	
15.9345	  9.529568	
15.9677	  9.537733	
16.001	  9.541849	
16.0343	  9.538434	
16.0675	  9.534942	
16.1008	  9.537442	
16.1341	  9.543731	
16.1673	  9.547107	
16.2006	  9.544179	
16.2339	  9.540943	
16.2671	  9.542788	
16.3004	  9.545125	
16.3337	  9.544919	
16.3669	  9.545347	
16.4002	  9.546508	
16.4335	  9.547561	
16.4667	  9.550026	
16.5	  9.552246	
16.5333	  9.552020	
16.5665	  9.551627	
16.5998	  9.552949	
16.6331	  9.552946	
16.6663	  9.543386	
16.6996	  9.519287	
16.7329	  9.494642	
16.7661	  9.489995	
16.7994	  9.501128	
16.8327	  9.507114	
16.8659	  9.498932	
16.8992	  9.482974	
16.9325	  9.471116	
16.9657	  9.467799	
16.999	  9.468059	
17.0323	  9.470496	
17.0655	  9.475688	
17.0988	  9.479416	
17.1321	  9.477821	
17.1653	  9.469756	
17.1986	  9.459880	
17.2319	  9.456323	
17.2651	  9.457645	
17.2984	  9.458709	
17.3317	  9.462420	
17.3649	  9.468549	
17.3982	  9.469366	
17.4315	  9.462298	
17.4647	  9.450379	
17.498	  9.437283	
17.5312	  9.429799	
17.5645	  9.430646	
17.5978	  9.433188	
17.631	  9.433208	
17.6643	  9.429959	
17.6976	  9.419188	
17.7308	  9.401853	
17.7641	  9.387168	
17.7974	  9.382198	
17.8306	  9.387655	
17.8639	  9.397974	
17.8972	  9.407269	
17.9304	  9.416168	
17.9637	  9.423510	
17.997	  9.424357	
18.0302	  9.421151	
18.0635	  9.419126	
18.0968	  9.418654	
18.13	  9.420936	
18.1633	  9.426281	
18.1966	  9.430120	
18.2298	  9.430599	
18.2631	  9.433003	
18.2964	  9.442323	
18.3296	  9.453150	
18.3629	  9.453497	
18.3962	  9.441859	
18.4294	  9.431763	
18.4627	  9.434659	
18.496	  9.446296	
18.5292	  9.455707	
18.5625	  9.455959	
18.5958	  9.445127	
18.629	  9.430074	
18.6623	  9.423268	
18.6956	  9.429652	
18.7288	  9.441893	
18.7621	  9.450178	
18.7954	  9.454892	
18.8286	  9.463603	
18.8619	  9.475026	
18.8952	  9.479043	
18.9284	  9.475470	
18.9617	  9.474535	
18.995	  9.476231	
19.0282	  9.468504	
19.0615	  9.449605	
19.0948	  9.434426	
19.128	  9.433739	
19.1613	  9.445676	
19.1946	  9.466750	
19.2278	  9.492902	
19.2611	  9.515976	
19.2944	  9.528455	
19.3276	  9.527412	
19.3609	  9.518645	
19.3942	  9.514803	
19.4274	  9.518305	
19.4607	  9.519367	
19.494	  9.518179	
19.5272	  9.524502	
19.5605	  9.536813	
19.5937	  9.546287	
19.627	  9.550178	
19.6603	  9.548661	
19.6935	  9.543280	
19.7268	  9.537885	
19.7601	  9.535069	
19.7933	  9.537409	
19.8266	  9.544258	
19.8599	  9.547667	
19.8931	  9.544190	
19.9264	  9.539502	
19.9597	  9.536271	
19.9929	  9.533376	
20.0262	  9.531961	
20.0595	  9.532337	
20.0927	  9.531534	
20.126	  9.525190	
20.1593	  9.514776	
20.1925	  9.510672	
20.2258	  9.514712	
20.2591	  9.514007	
20.2923	  9.504320	
20.3256	  9.495003	
20.3589	  9.489557	
20.3921	  9.483173	
20.4254	  9.474381	
20.4587	  9.467653	
20.4919	  9.467359	
20.5252	  9.472636	
20.5585	  9.476800	
20.5917	  9.471879	
20.625	  9.455382	
20.6583	  9.432628	
20.6915	  9.411047	
20.7248	  9.393484	
20.7581	  9.383274	
20.7913	  9.387773	
20.8246	  9.404783	
20.8579	  9.419580	
20.8911	  9.422090	
20.9244	  9.414832	
